<?xml version="1.0" encoding="UTF-8"?>
<svg xmlns="http://www.w3.org/2000/svg" xmlns:xlink="http://www.w3.org/1999/xlink" width="65px" height="65px" viewBox="0 0 65 65" version="1.1">
<g id="surface1">
<path style=" stroke:none;fill-rule:evenodd;fill:rgb(13.725491%,12.156863%,12.54902%);fill-opacity:1;" d="M 2.828125 0 L 62.171875 0 C 63.742188 0 65 0.984375 65 2.210938 L 65 62.789062 C 65 64.015625 63.742188 65 62.171875 65 L 2.828125 65 C 1.257812 65 0 64.015625 0 62.789062 L 0 2.210938 C 0 0.984375 1.257812 0 2.828125 0 Z M 2.828125 0 "/>
<path style=" stroke:none;fill-rule:evenodd;fill:rgb(100%,100%,100%);fill-opacity:1;" d="M 5.335938 5.257812 L 5.335938 59.742188 L 16.203125 59.742188 L 16.210938 40.8125 L 16.226562 21.882812 L 21.375 39.867188 C 24.207031 49.75 26.648438 58.269531 26.804688 58.789062 L 27.078125 59.742188 L 37.921875 59.742188 L 38.195312 58.789062 C 38.351562 58.269531 40.792969 49.75 43.625 39.867188 L 48.773438 21.882812 L 48.78125 40.8125 L 48.796875 59.742188 L 59.664062 59.742188 L 59.664062 5.257812 L 43.367188 5.257812 L 37.945312 23.351562 C 34.96875 33.296875 32.527344 41.457031 32.515625 41.476562 C 32.503906 41.492188 30.046875 33.347656 27.0625 23.382812 L 21.632812 5.257812 Z M 5.335938 5.257812 "/>
</g>
</svg>
